<?xml version="1.0" encoding="UTF-8" standalone="no"?>
<!-- Generator: Adobe Illustrator 19.2.1, SVG Export Plug-In . SVG Version: 6.00 Build 0)  -->

<svg
   version="1.1"
   id="layer"
   x="0px"
   y="0px"
   viewBox="0 0 652 200"
   xml:space="preserve"
   sodipodi:docname="heroku-v2.svg"
   width="652"
   height="200"
   inkscape:version="1.1.1 (c3084ef, 2021-09-22)"
   xmlns:inkscape="http://www.inkscape.org/namespaces/inkscape"
   xmlns:sodipodi="http://sodipodi.sourceforge.net/DTD/sodipodi-0.dtd"
   xmlns="http://www.w3.org/2000/svg"
   xmlns:svg="http://www.w3.org/2000/svg"><defs
   id="defs63" /><sodipodi:namedview
   id="namedview61"
   pagecolor="#ffffff"
   bordercolor="#666666"
   borderopacity="1.0"
   inkscape:pageshadow="2"
   inkscape:pageopacity="0.0"
   inkscape:pagecheckerboard="true"
   showgrid="false"
   borderlayer="true"
   inkscape:showpageshadow="false"
   inkscape:zoom="1"
   inkscape:cx="100.5"
   inkscape:cy="368.5"
   inkscape:window-width="1978"
   inkscape:window-height="1099"
   inkscape:window-x="70"
   inkscape:window-y="25"
   inkscape:window-maximized="1"
   inkscape:current-layer="layer" />
<style
   type="text/css"
   id="style53">
	.st0{fill:#430098;}
</style>
<g
   id="logos"
   transform="translate(4,-221)">
	<g
   id="Page-1">
		<g
   id="main">
			<g
   id="nav">
				<path
   id="logo"
   class="st0"
   d="M 156.7,238 H 36.1 c -8.3,0 -15.1,6.7 -15.1,15 0,0 0,0.1 0,0.1 v 137.8 c 0,8.3 6.7,15.1 15,15.1 0,0 0.1,0 0.1,0 h 120.6 c 8.3,0 15.1,-6.7 15.1,-15 0,0 0,-0.1 0,-0.1 V 253.1 c 0,-8.3 -6.7,-15.1 -15,-15.1 0,0 0,0 -0.1,0 z m 6.8,152.9 c 0.1,3.7 -2.9,6.7 -6.5,6.7 -0.1,0 -0.1,0 -0.2,0 H 36.1 c -3.7,0.1 -6.7,-2.9 -6.7,-6.5 0,-0.1 0,-0.1 0,-0.2 V 253.1 c -0.1,-3.7 2.9,-6.7 6.5,-6.7 0.1,0 0.1,0 0.2,0 h 120.6 c 3.7,-0.1 6.7,2.9 6.7,6.5 0,0.1 0,0.1 0,0.2 V 390.9 Z M 58.9,380.8 77.8,363.9 58.9,347 Z m 68,-68 c -5.4,-5.2 -12.7,-7.9 -20.2,-7.6 -10.7,0.3 -21.4,2.2 -31.5,5.9 V 263.3 H 58.4 V 336 l 11.8,-5.5 c 0,0 19.3,-8.8 36.2,-8.8 8.4,0 10.5,4.6 10.5,8.8 v 50.4 h 16.9 v -50.4 c 0.3,-6.7 -2.2,-13.1 -6.9,-17.7 z m -22.2,-22.3 h 16.9 c 6.8,-7.6 11.2,-17.1 12.5,-27.3 h -16.9 c -1.9,10 -6.2,19.4 -12.5,27.3 z M 568.8,330 v -36.9 h 16.9 V 330 c 0,8.4 2.9,12.6 9.6,12.6 6.7,0 9.2,-3.8 9.2,-12.6 V 293.1 H 621 v 37.4 c 0,16.4 -8,26.1 -26.1,26.1 C 576.8,356 568.8,346.4 568.8,330 Z m -70.5,-36.9 h 16.9 v 22.7 l 17.2,-22.7 h 19.3 l -21,24.4 22.7,37.8 h -18.9 l -14.7,-24.8 -4.6,5.5 v 19.3 h -16.9 z m -79.8,30.6 c 0,-22.7 15.6,-32.3 30.7,-32.3 15.1,0 30.7,9.6 30.7,32.3 0,22.7 -15.6,32.3 -30.8,32.3 -15.1,0 -30.6,-9.2 -30.6,-32.3 z m 44.1,0 c 0,-11.4 -5,-18.5 -13.9,-18.5 -8.8,0 -13.8,7.2 -13.8,18.5 0,11.3 5,18.9 13.8,18.9 8.8,0 13.9,-7.2 13.9,-18.9 z M 350.8,293.1 h 24.4 c 15.9,0 25.6,5.5 25.6,20.2 0,9.6 -4.2,15.6 -12.2,18.1 l 13,24 H 384 L 371.8,334 h -4.6 v 21.4 h -16.4 z m 24,27.7 c 6.7,0 10.1,-2.1 10.1,-7.2 0,-5.1 -2.9,-7.2 -10.1,-7.2 h -7.2 v 14.3 z m -88.2,-27.7 h 44.5 V 307 h -27.7 v 10 h 19.7 v 13 h -19.7 v 11.3 h 28.9 v 13.4 h -45.8 z m -76.1,0 h 16.9 v 23.1 H 248 v -23.1 h 16.9 v 62.1 H 248 V 330 h -20.6 v 25.2 h -16.9 z" />
			</g>
		</g>
	</g>
</g>
</svg>
