<svg id="Layer_1" data-name="Layer 1" xmlns="http://www.w3.org/2000/svg" viewBox="0 0 1280 361.05"><defs><style>.cls-1{fill:#2e2e2e;}.cls-2{fill:#4cb14f;}</style></defs><path class="cls-1" d="M1126.57,127.72a30.16,30.16,0,0,0-13.5-2.82c-5.19,0-9.58,5.87-13.06,17.55a241.39,241.39,0,0,1-10.21,28c-7,16.07-14.78,28.94-23.07,38.62s-15.74,14.5-22.18,14.5c-2.81,0-4.86-.81-6.24-2.48s-2-4.15-2-7.44a73.86,73.86,0,0,1,2.86-18.93,233.88,233.88,0,0,1,10-27.66c2-4.91,4.87-11.25,8.63-19.16s5.63-12.78,5.63-14.59c0-3.25-1.77-5.63-5.25-7.25s-8.63-2.43-15.45-2.43c-3.14,0-6.15,2.33-9,6.91s-7.35,14.83-13.17,30.61A295.6,295.6,0,0,0,1010,195.62a142,142,0,0,0-3.52,27.18,65.44,65.44,0,0,1-14.07,6,62.64,62.64,0,0,1-15,2.48c-5.49,0-9.4-1.05-11.78-3.14s-3.53-5.49-3.53-10.21c0-5.91,2-17.93,6.11-36s9.44-37.86,16.16-59.41a168,168,0,0,0,20.74-32c5.1-10.49,7.63-19.17,7.63-25.94,0-5.53-1.43-10-4.24-13.49a13.4,13.4,0,0,0-10.78-5.25c-6.58,0-12.35,3.29-17.36,9.78S970,73.93,964.21,90.91q-10.31,30.9-18,62.46t-12,61.32c-6.44,5.72-12.26,10-17.41,12.59a31.59,31.59,0,0,1-14.49,4c-2.91.29-5.15.43-6.49.48s-2.62.05-3.77.05c-3,0-5.86-.15-8.67-.38s-5.63-.67-8.44-1.2c-1.58-6.86-3.87-12.35-6.87-16.35a28.3,28.3,0,0,0-12.21-9.16,221.68,221.68,0,0,0,56.7-62q21.66-35.63,21.65-63.61c0-11-2.39-19.41-7.21-25.22s-11.58-8.78-20.4-8.78q-22.75,0-41.68,29.95T824.64,176.59c-.71,2.43-1.71,5.91-3,10.35q-12.3,42.48-34.81,44.34c-2.86.29-5.15.43-6.48.48s-2.58.05-3.72.05c-3,0-5.87-.15-8.73-.38s-5.62-.67-8.44-1.2c-1.52-6.86-3.81-12.35-6.86-16.35a28.12,28.12,0,0,0-12.21-9.16q35-26.39,56.69-62t21.65-63.61c0-11-2.38-19.41-7.2-25.22s-11.59-8.78-20.41-8.78q-22.74,0-41.62,29.95T709.11,176.59c-.67,2.43-1.67,5.91-3,10.35q-12.24,42.34-34.67,44.34h-1.81a51.29,51.29,0,0,1-15.93-2.14,32.59,32.59,0,0,1-12-7.3,117.88,117.88,0,0,0,30.18-32.9q11.3-18.6,11.3-34c0-9.45-2.62-16.88-7.92-22.32s-12.44-8.2-21.5-8.2c-16.26,0-30.28,6.48-42.2,19.41a64.82,64.82,0,0,0-17.88,45.48,72.8,72.8,0,0,0,2.38,19.65,45,45,0,0,0,7.3,14.92,88.74,88.74,0,0,1-14.83,5,101.56,101.56,0,0,1-16.69,2.48c-10-.9-16.64-1.81-19-3.05s-3.58-3.48-3.58-6.63c0-5.24,3.48-15.11,10.44-29.7s10.49-24.7,10.49-30.47c0-6.82-6.44-13.64-19.26-20.55-7.06-3.91-12.83-7.25-17.26-10.06a23.61,23.61,0,0,0,2.1-5.44,25.15,25.15,0,0,0,.66-5.82,13.88,13.88,0,0,0-4.19-10.49c-2.82-2.57-6.58-3.91-11.4-3.91a16.23,16.23,0,0,0-13,6.25c-3.43,4.1-5.15,9.35-5.15,15.59a23,23,0,0,0,1.43,8.39,19.53,19.53,0,0,0,4.44,6.68q-17.67,47.85-31.14,67.18-11.73,16.81-25.56,21.08a8.3,8.3,0,0,0-5.48,5.63,8.47,8.47,0,0,0,10.68,10.39c11.11-3.58,21.08-10.54,29.85-21q18.68-22.17,36.19-72.81a72.53,72.53,0,0,1,11.49,7.82c2.29,2,3.44,4,3.44,5.91,0,4.06-3.29,13.17-9.87,27.42s-9.92,25-9.92,32.28c0,8.11,3.48,14,10.35,17.6s18.16,5.39,33.9,5.39h4.15a122.23,122.23,0,0,0,25.74-3.77,141.75,141.75,0,0,0,25.42-9.3,53.2,53.2,0,0,0,19.26,9.87,92.59,92.59,0,0,0,25.75,3.2h3.53a48.2,48.2,0,0,0,13.59-2.48,46.19,46.19,0,0,0,11.78-6,241.84,241.84,0,0,0-6.58,25.17,94.39,94.39,0,0,0-2,18.27c0,9.58,2.19,16.92,6.62,22s10.78,7.67,19.17,7.67q20,0,34.38-18.26c9.58-12.16,15.21-28,16.74-47.44a79.72,79.72,0,0,0,8.15,1.05c2.34.19,4.63.28,6.91.28,1.77,0,3.1-.05,4.06-.05s1.95-.14,2.76-.23a48.2,48.2,0,0,0,13.59-2.48,47,47,0,0,0,11.78-6,260.11,260.11,0,0,0-6.63,25.17,98.86,98.86,0,0,0-2,18.27q0,14.37,6.58,22t19.17,7.67q20,0,34.42-18.26t16.74-47.44a80.5,80.5,0,0,0,8.11,1.05c2.38.19,4.67.28,7,.28,1.72,0,3-.05,4-.05s2-.14,2.72-.23a57.41,57.41,0,0,0,20.31-4.82,65.48,65.48,0,0,0,18.41-12.3,19.77,19.77,0,0,0,10.49,13q8.08,4.14,22.74,4.15h3a89.28,89.28,0,0,0,19-3.25,136.11,136.11,0,0,0,19.74-7.34,15.82,15.82,0,0,0,7.35,8,24.23,24.23,0,0,0,12,3.1q14.67,0,28-11.78t27.18-37.14c-3.2,9.25-6.68,18.74-10.3,28.46s-7.68,19.89-11.92,30.43c-10.49,4.76-18.84,11.15-25.08,19.07s-9.35,16-9.35,24.08c0,4.38,1.19,7.67,3.63,10s5.86,3.39,10.39,3.39q14,0,25.18-15.31t20.07-46.82a109.39,109.39,0,0,1,11.21-2.58c2.75-.47,6.39-1,10.88-1.48a8.48,8.48,0,1,0-2.08-16.84c-5.35.65-9.45,1.3-12.28,1.92l29.56-81.49c.76-2.19,2-5,3.53-8.63,2.1-4.91,3.14-8.15,3.14-9.82C1132.19,132,1130.33,129.63,1126.57,127.72ZM631.29,208.25a23.23,23.23,0,0,1-4.72-8.44,37.88,37.88,0,0,1-1.43-11.06q0-16.87,8.35-29.61c5.57-8.49,12-12.78,19.26-12.78,3.48,0,6.15,1,8,3s2.77,4.81,2.77,8.58c0,7.49-3.1,16.26-9.3,26.37A75.13,75.13,0,0,1,631.29,208.25Zm98,68.76q-5.94,12.74-13,12.73a5.88,5.88,0,0,1-5-2.72,12.7,12.7,0,0,1-1.86-7.2c0-4,1.24-11.54,3.72-22.55s5.86-23.89,10.15-38.53v.53a19.78,19.78,0,0,0,4.58,12.35,27.65,27.65,0,0,0,11.49,8.82Q735.26,264.26,729.33,277Zm2-84.83q21.45-68,34.52-96.41t22.51-28.42a7.05,7.05,0,0,1,5.67,2.39c1.38,1.57,2,3.76,2,6.67,0,3.48-1.53,9.73-4.53,18.69a218.66,218.66,0,0,1-11.73,28,314.23,314.23,0,0,1-23.08,39.1A197,197,0,0,1,731.38,192.18ZM844.86,277q-6,12.74-13,12.73a5.9,5.9,0,0,1-5.05-2.72,12.7,12.7,0,0,1-1.91-7.2c0-4,1.24-11.54,3.77-22.55s5.86-23.89,10.11-38.53v.53a20,20,0,0,0,4.58,12.35,27.77,27.77,0,0,0,11.53,8.82Q850.81,264.26,844.86,277Zm2-84.83q21.46-68,34.57-96.41c8.68-18.93,16.22-28.42,22.46-28.42a7.14,7.14,0,0,1,5.72,2.39c1.34,1.57,2,3.76,2,6.67,0,3.48-1.48,9.73-4.49,18.69a218.66,218.66,0,0,1-11.73,28,320.52,320.52,0,0,1-23.07,39.1A196.71,196.71,0,0,1,846.86,192.18Z"/><path class="cls-2" d="M308.19,52.88c-70.5-70.5-184.81-70.51-255.31,0A180.54,180.54,0,0,0,271.23,336.65a46.64,46.64,0,0,1,65.42-65.42A180.59,180.59,0,0,0,308.19,52.88Z"/><circle class="cls-1" cx="308.19" cy="308.19" r="37.76"/><path class="cls-1" d="M203.83,229.33a14.32,14.32,0,0,0-20.23,0l-17.44,17.44A36.67,36.67,0,1,1,114.3,194.9l17.43-17.43a14.31,14.31,0,0,0-20.24-20.24L94.06,174.66A65.29,65.29,0,0,0,186.4,267l17.43-17.43A14.31,14.31,0,0,0,203.83,229.33Z"/><path class="cls-1" d="M221,140.08a14.31,14.31,0,0,0-20.24,0l-60.69,60.69A14.31,14.31,0,0,0,160.32,221L221,160.31A14.3,14.3,0,0,0,221,140.08Z"/><rect class="cls-1" x="259.24" y="108.64" width="28.62" height="101.94" rx="14.31" transform="translate(-32.74 240.18) rotate(-45)"/><rect class="cls-1" x="222.58" y="145.31" width="101.94" height="28.62" rx="14.31" transform="translate(-32.74 240.18) rotate(-45)"/><path class="cls-1" d="M252.6,104.22h0A14.36,14.36,0,0,0,248.36,81a65.4,65.4,0,0,0-73.7,13l-17,17c-5.54,5.54-6.11,14.64-.73,20.35a14.31,14.31,0,0,0,20.54.31L194.9,114.3a36.69,36.69,0,0,1,41.74-7.13A14.12,14.12,0,0,0,252.6,104.22Z"/><path class="cls-1" d="M1176,156.36h78.36c5.18,0,9.92-.49,14.7-2.7,3.42-1.58,8.08-4.63,9.75-8.26,1.39-3,2-6.6-.48-9.33a14.62,14.62,0,0,0-10.42-4.55h-78.36c-5.17,0-9.91.5-14.7,2.71-3.42,1.58-8.08,4.62-9.75,8.25-1.38,3-2,6.6.48,9.33a14.64,14.64,0,0,0,10.42,4.55Z"/><path class="cls-1" d="M1246.28,102.45c-.4-3.74-1.78-9.13-4.68-11.88-2.4-2.27-5.62-4-9-2.54a14.61,14.61,0,0,0-7.65,8.4q-11,32.53-22.07,65.08-1.56,4.56-3.1,9.13c-1.66,4.9-2.72,9.55-2.17,14.79.4,3.75,1.79,9.14,4.69,11.89,2.39,2.27,5.62,4,9,2.54a14.63,14.63,0,0,0,7.65-8.41L1241,126.38q1.55-4.57,3.1-9.13C1245.78,112.34,1246.84,107.69,1246.28,102.45Z"/></svg>