<svg id="Layer_1" data-name="Layer 1" xmlns="http://www.w3.org/2000/svg" viewBox="0 0 1280 1280"><defs><style>.cls-1{fill:#ff9800;}.cls-2{fill:#2e2e2e;}</style></defs><path class="cls-1" d="M1092.59,187.46c-249.94-249.94-655.18-249.95-905.13,0s-249.95,655.19,0,905.13c209.86,209.86,529.15,243.43,774.12,100.9-50-64.85-45.44-158.51,14-217.93s153.08-64,217.93-14C1336,716.61,1302.45,397.31,1092.59,187.46Z"/><circle class="cls-2" cx="1092.59" cy="1092.59" r="133.87"/><path class="cls-2" d="M946.59,333.47c-90.26-90.26-237.11-90.26-327.37,0l-61.8,61.8A50.73,50.73,0,0,0,629.17,467L691,405.21c50.69-50.69,133.18-50.69,183.87,0a129.93,129.93,0,0,1,0,183.88L813,650.89a50.73,50.73,0,0,0,71.74,71.74l61.81-61.79a231.37,231.37,0,0,0,0-327.37Z"/><path class="cls-2" d="M650.89,813l-61.8,61.8a130.16,130.16,0,0,1-183.88,0c-50.69-50.69-50.69-133.18,0-183.88L467,629.17a50.73,50.73,0,0,0-71.75-71.75l-61.8,61.8c-90.26,90.26-90.26,237.11,0,327.37s237.11,90.25,327.36,0l61.81-61.81A50.73,50.73,0,0,0,650.89,813Z"/><path class="cls-2" d="M783.53,496.6a50.73,50.73,0,0,0-71.74,0L496.61,711.77a50.73,50.73,0,0,0,71.75,71.75L783.53,568.34A50.73,50.73,0,0,0,783.53,496.6Z"/></svg>