<svg id="Layer_1" data-name="Layer 1" xmlns="http://www.w3.org/2000/svg" viewBox="0 0 1280 408.18"><defs><style>.cls-1{fill:#ff9800;}.cls-2{fill:#2e2e2e;}</style></defs><path class="cls-1" d="M348.42,59.78c-79.7-79.71-208.93-79.71-288.64,0s-79.71,208.94,0,288.64c66.92,66.92,168.74,77.63,246.86,32.18a52.73,52.73,0,0,1,74-74C426.05,228.52,415.34,126.7,348.42,59.78Z"/><circle class="cls-2" cx="348.42" cy="348.42" r="42.69"/><path class="cls-2" d="M301.86,106.34a73.9,73.9,0,0,0-104.39,0l-19.71,19.71a16.18,16.18,0,1,0,22.88,22.88l19.71-19.71A41.46,41.46,0,1,1,279,187.86l-19.71,19.7a16.18,16.18,0,0,0,22.88,22.88l19.71-19.7a73.78,73.78,0,0,0,0-104.4Z"/><path class="cls-2" d="M207.57,259.27,187.86,279a41.46,41.46,0,0,1-58.64-58.64l19.71-19.7a16.18,16.18,0,1,0-22.88-22.88l-19.71,19.71a73.82,73.82,0,0,0,104.4,104.39l19.7-19.71a16.18,16.18,0,0,0-22.87-22.88Z"/><path class="cls-2" d="M249.86,158.36a16.18,16.18,0,0,0-22.88,0L158.37,227a16.18,16.18,0,1,0,22.88,22.88l68.61-68.62A16.18,16.18,0,0,0,249.86,158.36Z"/><path class="cls-2" d="M1273.64,144.39a34.13,34.13,0,0,0-15.26-3.18c-5.87,0-10.83,6.63-14.77,19.84a275.55,275.55,0,0,1-11.53,31.64q-12,27.26-26.09,43.67t-25.07,16.38c-3.18,0-5.5-.91-7.06-2.8s-2.27-4.69-2.27-8.41a83.46,83.46,0,0,1,3.24-21.4c2.15-8,5.93-18.44,11.26-31.27,2.27-5.55,5.5-12.72,9.76-21.67s6.36-14.44,6.36-16.49c0-3.67-2-6.36-5.93-8.2s-9.75-2.75-17.46-2.75c-3.56,0-7,2.65-10.25,7.82s-8.3,16.77-14.87,34.61a330.55,330.55,0,0,0-11.86,39,159.56,159.56,0,0,0-4,30.73,73.38,73.38,0,0,1-15.91,6.79,71.26,71.26,0,0,1-16.92,2.81c-6.2,0-10.62-1.19-13.32-3.56s-4-6.2-4-11.54c0-6.68,2.32-20.27,6.9-40.64s10.68-42.81,18.28-67.17a190.7,190.7,0,0,0,23.45-36.17c5.77-11.86,8.62-21.67,8.62-29.33,0-6.25-1.61-11.32-4.79-15.25A15.13,15.13,0,0,0,1128,51.89c-7.44,0-14,3.72-19.62,11s-11.75,20.64-18.27,39.83q-11.65,34.94-20.33,70.62t-13.53,69.33c-7.27,6.47-13.85,11.26-19.67,14.23s-11.27,4.53-16.39,4.53c-3.29.32-5.82.48-7.33.54s-3,.05-4.26.05c-3.34,0-6.63-.16-9.81-.43s-6.36-.76-9.54-1.35c-1.78-7.76-4.37-14-7.77-18.49a32,32,0,0,0-13.8-10.35,250.81,250.81,0,0,0,64.1-70.08q24.49-40.26,24.47-71.91c0-12.4-2.69-21.94-8.14-28.52S1035,51,1025,51q-25.71,0-47.11,33.86T932.3,199.65c-.81,2.74-1.94,6.68-3.4,11.69q-13.9,48-39.35,50.14c-3.23.32-5.82.48-7.33.54s-2.91.05-4.2.05c-3.35,0-6.64-.16-9.87-.43s-6.36-.76-9.54-1.35c-1.73-7.76-4.31-14-7.76-18.49a31.76,31.76,0,0,0-13.8-10.35q39.62-29.83,64.09-70.08t24.48-71.91c0-12.4-2.7-21.94-8.14-28.52S904.38,51,894.4,51q-25.71,0-47.06,33.86T801.68,199.65c-.75,2.74-1.88,6.68-3.39,11.69q-13.83,47.88-39.19,50.14h-2.05a57.89,57.89,0,0,1-18-2.43,36.89,36.89,0,0,1-13.53-8.25,133.28,133.28,0,0,0,34.13-37.19q12.76-21,12.77-38.49c0-10.68-3-19.09-8.95-25.23s-14.07-9.27-24.31-9.27c-18.38,0-34.23,7.33-47.71,21.94S671.23,194.31,671.23,214a82,82,0,0,0,2.69,22.21,50.8,50.8,0,0,0,8.25,16.88,100.54,100.54,0,0,1-16.76,5.6,115.57,115.57,0,0,1-18.87,2.81c-11.32-1-18.82-2.05-21.51-3.45s-4-3.94-4-7.5c0-5.93,3.93-17.09,11.8-33.58S644.65,189,644.65,182.5c0-7.71-7.28-15.42-21.78-23.23-8-4.42-14.5-8.2-19.51-11.37a26,26,0,0,0,2.37-6.15,27.7,27.7,0,0,0,.76-6.58,15.68,15.68,0,0,0-4.75-11.86c-3.18-2.91-7.44-4.42-12.88-4.42A18.33,18.33,0,0,0,574.14,126c-3.88,4.64-5.82,10.57-5.82,17.63a25.89,25.89,0,0,0,1.62,9.49,22,22,0,0,0,5,7.55q-20,54.09-35.2,75.95-13.26,19-28.9,23.83a9.38,9.38,0,0,0-6.19,6.36,9.57,9.57,0,0,0,12.07,11.75c12.56-4,23.83-11.91,33.75-23.77q21.1-25.06,40.91-82.32c6.09,3.56,10.46,6.52,13,8.84s3.89,4.53,3.89,6.69c0,4.58-3.72,14.88-11.16,31s-11.22,28.31-11.22,36.5c0,9.16,3.94,15.79,11.7,19.89s20.54,6.09,38.33,6.09h4.69a137.07,137.07,0,0,0,29.11-4.26,160.93,160.93,0,0,0,28.73-10.51,60.44,60.44,0,0,0,21.78,11.16c8.36,2.43,18.06,3.61,29.11,3.61h4a54.32,54.32,0,0,0,15.36-2.8A51.91,51.91,0,0,0,782,271.83a277.13,277.13,0,0,0-7.44,28.46,106.76,106.76,0,0,0-2.32,20.65q0,16.24,7.49,24.9t21.67,8.68q22.65,0,38.87-20.65c10.84-13.74,17.2-31.64,18.92-53.63a87,87,0,0,0,9.22,1.18c2.64.22,5.23.33,7.82.33,2,0,3.5-.06,4.58-.06s2.21-.16,3.13-.27a54.38,54.38,0,0,0,15.36-2.8,52.67,52.67,0,0,0,13.31-6.79,292.82,292.82,0,0,0-7.49,28.46,111.12,111.12,0,0,0-2.26,20.65q0,16.24,7.44,24.9T932,354.52q22.63,0,38.92-20.65t18.92-53.63a87.66,87.66,0,0,0,9.16,1.18c2.7.22,5.29.33,7.87.33,1.94,0,3.45-.06,4.59-.06s2.21-.16,3.07-.27a64.68,64.68,0,0,0,23-5.44,74.05,74.05,0,0,0,20.81-13.91,22.33,22.33,0,0,0,11.86,14.66q9.13,4.69,25.71,4.69h3.4a100.61,100.61,0,0,0,21.46-3.66,154.2,154.2,0,0,0,22.31-8.31c1.4,3.67,4.15,6.69,8.3,9.06a27.44,27.44,0,0,0,13.59,3.51q16.58,0,31.7-13.32t30.72-42c-3.61,10.45-7.54,21.18-11.64,32.18s-8.68,22.48-13.48,34.39c-11.86,5.39-21.29,12.62-28.35,21.57s-10.57,18-10.57,27.22c0,5,1.35,8.68,4.1,11.26s6.63,3.83,11.75,3.83q15.85,0,28.46-17.3t22.7-52.94A119.6,119.6,0,0,1,1243,284c3.11-.54,7.22-1.1,12.3-1.68a9.59,9.59,0,1,0-2.35-19q-9.08,1.09-13.89,2.17l33.42-92.13c.87-2.48,2.21-5.72,4-9.76,2.37-5.55,3.56-9.22,3.56-11.1C1280,149.24,1277.9,146.55,1273.64,144.39ZM713.71,235.44a26.25,26.25,0,0,1-5.34-9.54,42.69,42.69,0,0,1-1.62-12.51q0-19.08,9.44-33.47c6.3-9.6,13.58-14.45,21.78-14.45,3.93,0,6.95,1.13,9,3.34s3.12,5.45,3.12,9.7q0,12.7-10.51,29.81A84.9,84.9,0,0,1,713.71,235.44Zm110.83,77.73q-6.7,14.4-14.72,14.4a6.68,6.68,0,0,1-5.71-3.08,14.36,14.36,0,0,1-2.1-8.14c0-4.52,1.4-13,4.2-25.49s6.63-27,11.48-43.56v.59a22.3,22.3,0,0,0,5.18,14,31.14,31.14,0,0,0,13,10Q831.25,298.76,824.54,313.17Zm2.32-95.9q24.25-76.89,39-109t25.44-32.13a8,8,0,0,1,6.42,2.7c1.56,1.78,2.31,4.26,2.31,7.55,0,3.93-1.72,11-5.12,21.13a247.24,247.24,0,0,1-13.26,31.64,355.27,355.27,0,0,1-26.09,44.21A223.46,223.46,0,0,1,826.86,217.27Zm128.3,95.9q-6.79,14.4-14.72,14.4a6.68,6.68,0,0,1-5.71-3.08,14.28,14.28,0,0,1-2.16-8.14c0-4.52,1.4-13,4.26-25.49s6.63-27,11.43-43.56v.59a22.64,22.64,0,0,0,5.17,14,31.32,31.32,0,0,0,13.05,10Q961.86,298.76,955.16,313.17Zm2.26-95.9q24.26-76.89,39.08-109c9.81-21.4,18.33-32.13,25.39-32.13a8.09,8.09,0,0,1,6.47,2.7c1.51,1.78,2.27,4.26,2.27,7.55,0,3.93-1.67,11-5.07,21.13a250.15,250.15,0,0,1-13.26,31.64,364.11,364.11,0,0,1-26.09,44.21A223.71,223.71,0,0,1,957.42,217.27Z"/></svg>